<svg xmlns="http://www.w3.org/2000/svg" width="31" height="16"><path d="M2 2v9h6V9H7v1H3V7h2V6H3V3h4v1h1V2zm14 0v1h1v7h-1v1h3c2.479396 0 4-2.0206 4-4.5S21.479396 2 19 2h-1zm2 1h1c1.938956 0 3 1.5611 3 3.5 0 1.939-1.061044 3.5-3 3.5h-1zm6-1v9h3.5c1.37479 0 2.487405-1.1253 2.5-2.5.01105-1.2059-.757689-2.0327-1.618433-2.4006.271667-.2357.618432-.7799.618432-1.5994 0-1.3748-1.12521-2.5-2.5-2.5zm1 1h1.5c.834349 0 1.5.6657 1.5 1.5 0 .8344-.665651 1.5-1.5 1.5H25zm0 4h2.5c.834349 0 1.5.6657 1.5 1.5 0 .8344-.665651 1.5-1.5 1.5H25z"/><g><path d="M11 3.9992c-1.65093 0-3 1.3491-3 3 0 1.651 1.34907 3 3 3s3-1.349 3-3c0-1.6509-1.34907-3-3-3zm0 1c1.110494 0 2 .8895 2 2s-.889506 2-2 2-2-.8895-2-2 .889506-2 2-2z"/><path d="M13 3.9991v11.2598l4.197266-1.7988-.394532-.92L14 13.7413V3.9991h-1z"/></g></svg>